<?xml version="1.0" encoding="UTF-8" standalone="no"?>
<!-- Created with Inkscape (http://www.inkscape.org/) -->

<svg
   width="400"
   height="150"
   viewBox="0 0 105.83333 39.6875"
   version="1.1"
   id="svg1"
   xml:space="preserve"
   inkscape:version="1.4.3 (0d15f75, 2025-12-25)"
   sodipodi:docname="logo_alikhlash-berqurban_min.svg"
   xmlns:inkscape="http://www.inkscape.org/namespaces/inkscape"
   xmlns:sodipodi="http://sodipodi.sourceforge.net/DTD/sodipodi-0.dtd"
   xmlns="http://www.w3.org/2000/svg"
   xmlns:svg="http://www.w3.org/2000/svg"><sodipodi:namedview
     id="namedview1"
     pagecolor="#ffffff"
     bordercolor="#000000"
     borderopacity="0.25"
     inkscape:showpageshadow="2"
     inkscape:pageopacity="0.0"
     inkscape:pagecheckerboard="0"
     inkscape:deskcolor="#d1d1d1"
     inkscape:document-units="mm"
     inkscape:zoom="1"
     inkscape:cx="117.5"
     inkscape:cy="251.5"
     inkscape:window-width="1920"
     inkscape:window-height="1009"
     inkscape:window-x="1912"
     inkscape:window-y="-8"
     inkscape:window-maximized="1"
     inkscape:current-layer="layer1" /><defs
     id="defs1" /><g
     inkscape:label="Layer 1"
     inkscape:groupmode="layer"
     id="layer1"><path
       style="fill:#000000"
       d="m 259.92957,0.02442028 h 5.2e-4 c 0.002,0.0231 0.002,0.0349 0.002,0.0377 h -5.2e-4 c -8.6e-4,-0.003 -0.002,-0.0167 -0.002,-0.0377 z"
       id="path43" /><rect
       style="fill:#bb971a;fill-opacity:1;stroke:none;stroke-width:4.33718;stroke-dasharray:none;stroke-opacity:1"
       id="rect86"
       width="105.83334"
       height="39.6875"
       x="0"
       y="0" /><g
       id="g1"
       transform="matrix(0.803005,0,0,0.803005,-26.026109,-17.519922)"><path
         id="path86"
         style="fill:#f9f9f9;fill-opacity:1;stroke:none;stroke-width:3.67176;stroke-dasharray:none;stroke-opacity:1"
         d="m 53.626856,32.760289 c 7.491607,0.47319 9.274554,5.443317 9.545597,6.887153 0.256931,0.02566 0.518348,0.02496 0.777447,-5.15e-4 0.766608,-0.07566 0.999477,0.03899 1.333198,0.490343 0.423559,0.572891 1.235618,1.0376 1.944876,1.0376 -0.03981,0 -0.06117,0.0014 -0.06796,0.0073 l -5.03e-4,5.15e-4 -5.05e-4,4.86e-4 -4.89e-4,5.01e-4 v 5e-4 h -5.05e-4 v 4.94e-4 5e-4 5.15e-4 l -4.97e-4,4.86e-4 4.97e-4,5.01e-4 v 5e-4 4.87e-4 5.14e-4 h 5.05e-4 v 5.01e-4 h 4.89e-4 v 4.93e-4 c 0.02412,0.03645 0.330117,0.13663 0.535274,0.319571 0.178777,0.159887 0.261694,0.405827 0.296604,0.424418 l 5.04e-4,5e-4 h 5.05e-4 4.89e-4 v 5.15e-4 h 5.04e-4 5.05e-4 4.89e-4 5.05e-4 5.04e-4 4.89e-4 5.04e-4 l 5.05e-4,-5.15e-4 h 4.88e-4 l 5.05e-4,-5e-4 c 0.01125,-0.011 0.01545,-0.06514 0.01545,-0.183244 0,0.53836 0.232017,0.872192 0.454882,1.133966 0.222865,0.261767 0.481971,0.464794 0.777448,0.639126 0.637191,0.375971 0.760481,0.616277 0.760481,1.139967 0,0.730889 0.260937,1.458041 0.731507,2.017277 0.262853,0.312449 0.3645,0.684965 0.340533,0.955206 l -0.0087,0.100844 0.0087,0.102302 c 0.01616,0.180657 -0.0134,0.327142 -0.0749,0.450405 -0.0943,0.189102 -0.184533,0.368152 -0.25265,0.614662 l -0.08388,0.30559 0.08388,0.304582 c 0.06843,0.247582 0.158632,0.426307 0.25265,0.614677 0.06158,0.123192 0.09103,0.271129 0.0749,0.451892 l -0.0087,0.100843 0.0087,0.100836 c 0.02397,0.270291 -0.07765,0.644252 -0.340533,0.956709 -0.47057,0.559242 -0.731507,1.286388 -0.731507,2.017277 0,0.523675 -0.12329,0.764017 -0.760481,1.139959 -0.295477,0.174326 -0.554583,0.375857 -0.777448,0.637638 -0.222865,0.261782 -0.454882,0.597116 -0.454882,1.135455 0,-0.12186 -0.0039,-0.175059 -0.01545,-0.183745 h -5.05e-4 l -4.88e-4,-4.93e-4 h -5.05e-4 l -5.04e-4,-5.01e-4 h -4.89e-4 -5.04e-4 -5.05e-4 -4.89e-4 -5.05e-4 l -5.04e-4,5.01e-4 c -1.66e-4,4.9e-5 -7.75e-4,-5e-5 -0.0016,0 -0.03501,0.01812 -0.118319,0.264509 -0.297092,0.423924 -0.205117,0.182913 -0.510614,0.282163 -0.534787,0.318569 -7e-5,1.41e-4 -3.06e-4,0.0014 -4.88e-4,0.0014 h -5.04e-4 l -5.05e-4,5.01e-4 v 5e-4 5.01e-4 l -4.89e-4,4.93e-4 4.89e-4,5.08e-4 v 4.93e-4 5.01e-4 l 5.05e-4,5e-4 v 5.01e-4 l 5.04e-4,4.86e-4 4.88e-4,5.15e-4 c 0.0071,0.0063 0.02862,0.0085 0.06844,0.0085 -0.709251,0 -1.521308,0.466196 -1.944868,1.039087 -0.333729,0.451314 -0.56659,0.566004 -1.333197,0.490357 -0.744051,-0.07334 -1.50756,0.05633 -2.126626,0.429903 -0.214698,0.129593 -0.397984,0.174241 -0.580215,0.173275 -0.182016,-0.0014 -0.377129,-0.05062 -0.606183,-0.190252 -0.138773,-0.08458 -0.286677,-0.157941 -0.441401,-0.219192 -0.151759,0.257185 -0.38622,0.505007 -0.746487,0.768445 -0.463382,0.338824 -0.609992,0.56625 -1.585359,0.56625 -0.55418,0 -0.656949,-0.12726 -0.773458,-0.184753 -0.11651,-0.05746 -0.183437,-0.100843 -0.245665,-0.141811 C 56.71951,59.892384 56.6248,59.820255 56.519296,59.73648 56.308297,59.568937 56.069381,59.362773 55.790777,59.113816 55.233568,58.615894 54.529,57.951564 53.784989,57.218878 c -0.671511,-0.661313 -1.293604,-1.243545 -1.783587,-1.685229 -0.872725,0.86577 -3.444583,1.914657 -4.752055,1.789111 -1.60428,-0.154142 -2.997664,-1.372582 -3.674536,-2.946018 -0.354811,-0.824739 -0.521683,-1.757816 -0.679087,-2.770254 -0.07868,-0.506227 -0.138932,-1.005339 -0.171767,-1.459022 -0.02902,-0.400095 -0.06181,-0.714315 0,-1.144958 -7.75e-4,-0.02869 -0.0048,-0.06867 -0.01703,-0.111841 -0.04383,-0.161706 -0.138269,-0.420308 -0.270136,-0.704057 -1.691146,-3.639013 -1.015899,-7.606071 1.149454,-10.530762 2.165343,-2.924699 5.806617,-4.89687 10.039938,-4.89687 z m 0.337049,1.692194 c -7.470312,0 -12.611182,6.943793 -9.730366,13.142737 0.326854,0.703337 0.494672,1.321003 0.438413,1.61532 -0.144333,0.755007 0.307719,3.66316 0.717529,4.615772 0.551011,1.280861 1.258386,1.877249 2.351815,1.982316 1.129649,0.108542 2.028691,-0.318851 3.197689,-1.520456 0.456332,-0.469044 0.949792,-0.85284 1.096528,-0.85284 0.146752,0 1.457411,1.172474 2.912557,2.605488 1.455162,1.433014 2.767073,2.605474 2.915561,2.605474 0.148502,0 0.422274,-0.111235 0.608177,-0.24718 0.186371,-0.13627 0.338043,-0.47943 0.338043,-0.764962 0,-0.413738 -0.463193,-0.983146 -2.303393,-2.832661 -1.266688,-1.273092 -2.673192,-2.561947 -3.125771,-2.864125 -1.334372,-0.89096 -2.323678,-0.683478 -3.629101,0.761458 -0.866631,0.95926 -1.542533,1.336478 -1.977832,1.103504 -0.609518,-0.326205 -0.976589,-1.648971 -1.031106,-3.716959 -0.04659,-1.76999 -0.109457,-2.077117 -0.668586,-3.257106 -0.548779,-1.158135 -0.617166,-1.478819 -0.617166,-2.888596 0,-1.408156 0.06647,-1.72131 0.59569,-2.796226 1.835266,-3.727914 6.963017,-5.818074 10.526279,-4.290681 4.073961,1.746302 4.151572,6.472703 0.137314,8.365681 -2.000371,0.943313 -4.25299,0.572257 -4.734609,-0.77995 -0.383026,-1.075423 0.819226,-2.355805 2.212019,-2.355805 0.580426,0 1.117649,-0.74525 0.940228,-1.304246 -0.444444,-1.400309 -3.792772,-0.35685 -4.773043,1.48749 -0.520713,0.979663 -0.466834,2.646385 0.11783,3.644068 1.30506,2.226924 5.42083,2.393544 8.414128,0.340558 3.212225,-2.203129 3.745372,-6.435719 1.166427,-9.257494 -1.643898,-1.798677 -3.423905,-2.540579 -6.095258,-2.540579 z"
         sodipodi:nodetypes="cccsccccccccccccccccccccccccccccccccccscsssccccsccccccccssscccccccccccccssscccccccccccccccscccsssssssccscscccsccssssssssssssssscsscssssssssss" /><path
         id="path87"
         style="fill:#f9f9f9;fill-opacity:1;stroke-width:0.402392"
         d="m 123.35344,39.234558 c -0.82942,0 -1.74321,0.290982 -2.09731,0.667918 -0.55768,0.593633 -0.69839,1.508323 -0.33999,2.210842 0.28326,0.555231 0.85728,0.919745 1.93637,1.229974 1.47828,0.424982 1.75337,0.554512 1.89311,0.891869 0.2728,0.658599 -0.20475,1.067986 -1.246,1.067986 -0.78207,0 -1.29511,-0.257297 -1.55624,-0.780401 -0.19431,-0.389196 -0.19783,-0.390726 -0.87835,-0.390726 -0.7676,0 -0.80027,0.04561 -0.51777,0.721964 0.3043,0.72847 1.00598,1.276384 1.93552,1.511121 0.2205,0.05562 0.77488,0.08349 1.23186,0.06176 1.61707,-0.07725 2.52312,-0.828243 2.52275,-2.091274 -3.4e-4,-1.188936 -0.56237,-1.712533 -2.3955,-2.232049 -1.45894,-0.413483 -1.65022,-0.528511 -1.65022,-0.991888 0,-0.533446 0.30678,-0.751277 1.06384,-0.755663 0.69372,-0.0049 1.11706,0.220969 1.3641,0.724679 0.12895,0.262979 0.18791,0.28322 0.82509,0.28322 0.78547,0 0.82261,-0.06232 0.48266,-0.81097 -0.37629,-0.828603 -1.33267,-1.318367 -2.57392,-1.318367 z M 81.947369,39.34102 v 3.513389 3.513389 h 2.448729 2.448725 v -0.58556 -0.585567 H 85.141362 83.437899 V 42.268842 39.34102 h -0.745265 z m 9.475509,0 v 3.513389 3.513389 h 0.745267 0.745259 V 42.854409 39.34102 h -0.745259 z m 2.448726,0 v 3.513389 3.513389 h 0.742562 0.742355 l 0.02954,-1.557482 0.02934,-1.557292 1.417957,1.557292 1.417759,1.557482 h 1.013708 1.013515 l -1.769177,-1.832172 -1.769165,-1.832186 1.678709,-1.681203 1.678733,-1.681217 h -1.012482 -1.012474 l -1.263455,1.357452 c -0.694914,0.746583 -1.304766,1.373273 -1.355156,1.392794 -0.05039,0.01953 -0.0917,-0.591341 -0.0917,-1.357452 V 39.34102 h -0.745267 z m 7.133256,0 v 3.513389 3.513389 h 0.74526 0.74526 v -1.543756 -1.54377 h 1.54376 1.54377 v 1.54377 1.543756 h 0.74526 0.74527 V 42.854409 39.34102 h -0.74527 -0.74526 v 1.384066 1.384052 h -1.54377 -1.54376 V 40.725086 39.34102 h -0.74526 z m 7.02677,0 v 3.513389 3.513389 h 2.44873 2.44874 v -0.58556 -0.585567 h -1.70347 -1.70348 V 42.268842 39.34102 h -0.74525 z m 18.95103,0 v 3.513389 3.513389 h 0.74526 0.74527 v -1.543756 -1.54377 h 1.54376 1.54375 v 1.54377 1.543756 h 0.74528 0.74526 V 42.854409 39.34102 h -0.74526 -0.74528 v 1.384066 1.384052 h -1.54375 -1.54376 V 40.725086 39.34102 h -0.74527 z m -49.650983,0.0098 c -0.362339,0.0014 -0.389563,0.05809 -0.477852,0.278651 -0.267035,0.667045 -2.359103,6.560808 -2.359103,6.646028 0,0.05076 0.326964,0.09216 0.726549,0.09216 h 0.726551 l 0.251401,-0.801622 0.251403,-0.801417 1.328958,0.02961 1.329166,0.02968 0.257017,0.771885 0.257225,0.771885 h 0.747967 c 0.722615,0 0.745795,-0.0085 0.687248,-0.239545 -0.03333,-0.131751 -0.5848,-1.700809 -1.225402,-3.486783 l -1.164684,-3.247229 -0.84778,-0.03067 c -0.209936,-0.0085 -0.367885,-0.01311 -0.488664,-0.01248 z m 39.522733,0.0122 -0.86587,0.03095 -1.25139,3.491153 -1.25141,3.49092 0.7511,-0.03095 0.7513,-0.03095 0.25701,-0.771885 0.25701,-0.771899 h 1.31295 1.31316 l 0.25701,0.771899 0.25681,0.771885 0.76336,0.03116 c 0.41985,0.0172 0.76335,-0.0073 0.76335,-0.05344 0,-0.0466 -0.55096,-1.616639 -1.22436,-3.488855 -0.67339,-1.872202 -1.22437,-3.419059 -1.22437,-3.437481 0,-0.01833 -0.38947,-0.01953 -0.86566,-0.0021 z m -0.0209,1.416503 0.44333,1.330211 c 0.24382,0.731594 0.44312,1.366018 0.44312,1.409848 0,0.04385 -0.41035,0.07994 -0.91203,0.07994 -0.82029,0 -0.90619,-0.01868 -0.85298,-0.186325 0.0325,-0.10243 0.24359,-0.736896 0.46892,-1.409841 z m -39.09105,0.07175 c 0.0328,-0.03581 0.904341,2.535862 0.904341,2.668522 0,0.04385 -0.401978,0.07957 -0.893319,0.07957 h -0.89332 l 0.425866,-1.357438 c 0.234265,-0.746604 0.43966,-1.372412 0.456432,-1.390721 z m 8.995788,2.322303 v 0.532326 0.532339 h 1.809931 1.809926 V 43.705896 43.17357 h -1.809877 z" /><path
         id="path88"
         style="fill:#f9f9f9;fill-opacity:1;stroke-width:0.5452"
         d="m 104.64315,48.125945 c -1.65293,-0.0014 -2.45292,0.300817 -3.48991,1.319389 -1.01329,0.9953 -1.33212,1.832461 -1.333755,3.504562 -0.0017,1.616851 0.258605,2.332899 1.233175,3.390176 0.65494,0.710529 1.13775,1.015942 2.07586,1.312635 0.65607,0.207482 2.33657,0.243261 5.01271,0.106829 l 1.8392,-0.09387 v -0.741831 -0.742098 l -0.94663,0.06028 -0.94694,0.06028 0.38993,-0.413871 c 0.71246,-0.756565 0.99267,-1.584202 0.99595,-2.938552 0.004,-1.555783 -0.31187,-2.412776 -1.25571,-3.410748 -1.0215,-1.08009 -1.85906,-1.411561 -3.57388,-1.413203 z m -30.148428,0.04167 v 4.771274 4.771267 l 2.704704,-0.0035 c 3.022273,-0.0035 3.523509,-0.120154 4.255683,-0.990323 0.936638,-1.113127 0.546321,-3.231903 -0.700124,-3.799817 -0.438979,-0.200023 -0.435666,-0.312689 0.01521,-0.518127 0.915848,-0.41729 1.254186,-2.109618 0.612221,-3.06223 -0.655487,-0.972676 -1.010262,-1.069276 -4.110868,-1.12189 z m 54.382568,0 v 4.771274 4.771267 l 2.70471,-0.0035 c 2.93118,-0.0035 3.47597,-0.11844 4.17368,-0.879595 0.98574,-1.075367 0.75256,-2.98442 -0.46062,-3.770242 -0.59773,-0.387159 -0.6102,-0.445223 -0.14227,-0.65843 0.82721,-0.376907 1.18319,-1.754713 0.73222,-2.834014 -0.11795,-0.28243 -0.46539,-0.662955 -0.81846,-0.896783 -0.61182,-0.405207 -0.62035,-0.406327 -3.40115,-0.453323 z m 18.03135,0.011 v 4.765923 4.76562 h 1.00976 1.00976 l 0.009,-3.498069 0.009,-3.498098 1.7575,3.498098 1.75749,3.498069 h 1.33573 1.33574 v -4.760269 -4.760283 h -1.00977 -1.00975 l -0.006,3.498084 -0.006,3.498083 -1.76115,-3.462022 -1.76145,-3.462016 -1.33431,-0.04145 z m -63.758865,0.011 v 4.760283 4.760283 h 3.534149 3.534145 v -0.793388 -0.79338 h -2.524391 -2.524391 v -1.222466 -1.222472 l 2.271952,-0.03969 2.271953,-0.03976 0.04366,-0.757326 0.04367,-0.757313 h -2.315616 -2.315623 v -1.15401 -1.154003 h 2.452267 2.45226 v -0.79338 -0.793374 h -3.462018 z m 8.078048,0 v 4.760283 4.759987 h 1.009754 1.009761 v -1.947383 c 0,-1.500011 0.04315,-1.947384 0.187357,-1.947384 0.102967,0 0.860294,0.876324 1.682832,1.947384 l 1.495472,1.947383 h 1.371511 1.371794 L 99.066956,57.38533 c -0.159068,-0.17852 -0.923754,-1.034878 -1.699454,-1.903151 l -1.410389,-1.578872 0.755341,-0.24625 c 1.515984,-0.494199 2.160667,-1.286275 2.160667,-2.654824 0,-1.022823 -0.322644,-1.643901 -1.140482,-2.195036 -0.777118,-0.523697 -1.380049,-0.615932 -4.01649,-0.617018 z m 19.473867,0 v 3.219446 c 0,3.699044 0.11465,4.319988 0.97397,5.284028 0.37642,0.422282 0.78186,0.689661 1.33404,0.879314 1.71364,0.588584 3.69935,0.247624 4.71746,-0.809998 0.93969,-0.976166 1.05258,-1.551299 1.05258,-5.353344 v -3.219446 h -1.00975 -1.00976 v 3.281712 c -2e-4,2.840021 -0.0343,3.347847 -0.25244,3.77419 -0.63247,1.235381 -2.65499,1.360632 -3.43244,0.212431 -0.25651,-0.37884 -0.286,-0.725228 -0.32738,-3.842364 l -0.0457,-3.425969 h -1.00018 z m 9.23205,0 v 4.760283 4.759987 h 1.00976 1.00976 v -1.947383 c 0,-1.464345 0.0448,-1.946411 0.18031,-1.942597 0.0991,0.0021 0.84922,0.87901 1.66651,1.947384 l 1.48587,1.942596 h 1.3921 1.39235 l -0.50517,-0.540927 c -0.27779,-0.297524 -1.06713,-1.163943 -1.75412,-1.925408 l -1.24894,-1.384482 0.8438,-0.234695 c 1.44519,-0.401794 2.17518,-1.290985 2.17081,-2.64384 -0.004,-1.236481 -0.85559,-2.286722 -2.14431,-2.644693 -0.28702,-0.07969 -1.6418,-0.145209 -3.0104,-0.145661 z m 20.2633,0 -1.65691,4.635752 c -0.91127,2.549687 -1.67837,4.691813 -1.70481,4.760282 -0.0264,0.06846 0.40621,0.124532 0.96159,0.124532 h 1.00976 l 0.34851,-1.045827 0.34879,-1.045814 h 1.79102 1.79103 l 0.35865,1.045814 0.35837,1.045827 h 1.04469 1.0447 L 145.26499,55.9431 c -0.34504,-0.971894 -1.10622,-3.112934 -1.69157,-4.758034 l -1.0644,-2.99123 -1.15599,-0.0021 z m -63.682805,1.442511 h 1.206691 c 1.002341,0 1.271043,0.05062 1.586761,0.298928 0.48492,0.381434 0.532702,1.279443 0.09156,1.720584 -0.24576,0.245756 -0.480835,0.288501 -1.586758,0.288501 H 76.51423 v -1.15401 z m 54.382565,0 h 1.2329 c 1.11644,0 1.26607,0.03349 1.58676,0.35415 0.44858,0.448586 0.47997,1.250758 0.0654,1.665362 -0.24576,0.245756 -0.48084,0.288501 -1.58675,0.288501 h -1.29827 v -1.15401 z m -26.26408,0.02679 c 0.40729,0.0122 0.82677,0.12162 1.24446,0.331315 0.85174,0.427563 1.29198,1.029169 1.5152,2.07023 0.30206,1.408791 -0.18482,3.021594 -1.12979,3.74236 -0.67986,0.518563 -2.15521,0.622601 -2.91769,0.205945 -1.7426,-0.95226 -2.07925,-4.188717 -0.58265,-5.601272 0.5466,-0.515885 1.19167,-0.768332 1.87047,-0.748578 z m -11.385382,0.0918 1.599998,0.04879 c 1.47734,0.04512 1.620869,0.07517 1.875265,0.389662 0.331754,0.410106 0.356991,1.137365 0.05466,1.569009 -0.121349,0.173233 -0.462144,0.38204 -0.75732,0.464018 -0.5964,0.165661 -2.525815,0.204803 -2.676246,0.05443 -0.05288,-0.05295 -0.09635,-0.642764 -0.09635,-1.310936 z m 28.705922,0.02566 h 1.36363 c 1.59668,0 2.03231,0.155432 2.24575,0.802116 0.24293,0.736085 -0.11074,1.442221 -0.82099,1.639452 v 2.75e-4 c -0.30386,0.08434 -1.05557,0.15367 -1.67046,0.154114 l -1.11793,5.5e-4 v -1.298261 z m 19.36258,0.406272 0.6108,1.852447 c 0.33609,1.01884 0.58465,1.901121 0.55223,1.960624 -0.10708,0.196462 -2.35001,0.127887 -2.35001,-0.07187 0,-0.09901 0.267,-0.981327 0.59336,-1.960624 z m -10.41904,3.159992 1.31405,0.07493 c 1.1762,0.06712 1.35372,0.114654 1.69495,0.455847 0.5558,0.555809 0.54417,1.55756 -0.0237,2.045999 -0.36261,0.311885 -0.53902,0.348235 -1.69494,0.348235 h -1.29036 v -1.462518 z m -54.382565,0.04033 0.973694,5.5e-4 c 1.452393,0.0014 2.035789,0.205029 2.283502,0.797893 0.359516,0.86044 0.171825,1.634962 -0.466844,1.925972 v 2.82e-4 c -0.193329,0.08813 -0.900342,0.160303 -1.570981,0.160303 h -1.219371 v -1.442503 z" /></g></g></svg>
